<svg xmlns="http://www.w3.org/2000/svg" version="1.1" xmlns:xlink="http://www.w3.org/1999/xlink" xmlns:svgjs="http://svgjs.com/svgjs" width="512" height="512" x="0" y="0" viewBox="0 0 512 512" style="enable-background:new 0 0 512 512" xml:space="preserve" className=""><g><path xmlns="http://www.w3.org/2000/svg" d="m490 267c0 135.308594-109.691406 245-245 245s-245-109.691406-245-245 109.691406-245 245-245 245 109.691406 245 245zm0 0" fill="#aec1ed" data-original="#aec1ed" className=""></path><path xmlns="http://www.w3.org/2000/svg" d="m417.074219 242.621094h-14.472657v90.539062c0 3.027344-2.460937 5.492188-5.488281 5.492188h-43.832031c-.242188 0-.480469-.027344-.71875-.058594v40.558594h29c24.8125 0 45-20.183594 45-45v-101.019532c0 5.230469-4.257812 9.488282-9.488281 9.488282zm0 0" fill="#02af8e" data-original="#02af8e"></path><path xmlns="http://www.w3.org/2000/svg" d="m353.28125 338.652344c-2.390625 0-4.488281-1.535156-5.226562-3.824219l-.222657-.691406h-154.800781l.285156 1.226562c.164063.707031.246094 1.429688.246094 2.148438 0 5.230469-4.253906 9.488281-9.488281 9.488281h-36.363281c-5.234376 0-9.492188-4.257812-9.492188-9.488281v-29.511719l-43.21875.011719 2 1.035156c12.566406.746094 22.5625 11.203125 22.5625 23.953125v128.738281h22v-115.742187c1.777344 1.289062 3.925781 2.003906 6.148438 2.003906h36.363281c1.953125 0 3.847656-.546875 5.488281-1.5625v119.300781c0 14.359375-6.917969 27.132813-17.59375 35.167969 23.066406 7.199219 47.59375 11.09375 73.03125 11.09375 38.988281 0 75.839844-9.121094 108.5625-25.324219v-148.023437zm0 0" fill="#0f9390" data-original="#0f9390"></path><path xmlns="http://www.w3.org/2000/svg" d="m184.074219 347h-36.363281c-2.851563 0-5.40625-1.269531-7.148438-3.265625v117.003906h-20v-127.738281c0-13.808594-11.191406-25-25-25-13.804688 0-25 11.191406-25 25v132.738281c0 24.8125 20.1875 45 45 45h30c24.816406 0 45-20.1875 45-45v-121.324219c-1.699219 1.597657-3.976562 2.585938-6.488281 2.585938zm0 0" fill="#02af8e" data-original="#02af8e"></path><path xmlns="http://www.w3.org/2000/svg" d="m91 465.738281v-132.738281c0-10.164062 6.070312-18.90625 14.78125-22.816406-3.121094-1.398438-6.578125-2.183594-10.21875-2.183594-13.804688 0-25 11.191406-25 25v132.738281c0 24.8125 20.1875 45 45 45h20.4375c-24.8125 0-45-20.1875-45-45zm0 0" fill="#159e97" data-original="#159e97"></path><path xmlns="http://www.w3.org/2000/svg" d="m80.4375 147h16.757812v-33.472656c0-10.15625 8.265626-18.421875 18.421876-18.421875h170.578124c10.15625 0 18.421876 8.265625 18.421876 18.421875v33.472656h16.757812c.121094 0 .238281.015625.359375.019531v-26.191406c0-66.625-54.203125-120.828125-120.828125-120.828125s-120.824219 54.203125-120.824219 120.828125v26.1875c.117188 0 .234375-.015625.355469-.015625zm0 0" fill="#ef9614" data-original="#ef9614" className=""></path><path xmlns="http://www.w3.org/2000/svg" d="m80.4375 147h16.757812v-33.472656c0-9.640625 7.449219-17.5625 16.894532-18.34375 10.710937-49.367188 51.683594-87.585938 102.449218-94.171875-5.117187-.664063-10.335937-1.011719-15.632812-1.011719-66.625 0-120.824219 54.203125-120.824219 120.828125v26.1875c.117188 0 .234375-.015625.355469-.015625zm0 0" fill="#ef8318" data-original="#ef8318" className=""></path><path xmlns="http://www.w3.org/2000/svg" d="m97.195312 199.601562v-53.601562h-16.757812c-9.902344 0-18 8.101562-18 18.003906v30.464844c0 9.898438 8.101562 18 18 18h17.558594c-.523438-4.21875-.800782-8.511719-.800782-12.867188zm0 0" fill="#ffe2b8" data-original="#ffe2b8" className=""></path><path xmlns="http://www.w3.org/2000/svg" d="m76 194.46875v-30.464844c0-9.902344 8.101562-18.003906 18-18.003906h-13.5625c-9.902344 0-18 8.101562-18 18.003906v30.464844c0 9.898438 8.101562 18 18 18h13.5625c-9.898438 0-18-8.101562-18-18zm0 0" fill="#ffc987" data-original="#ffc987" className=""></path><path xmlns="http://www.w3.org/2000/svg" d="m307.105469 164.375 16.054687 25.417969h16.21875v-25.789063c0-9.902344-8.101562-18.003906-18-18.003906h-16.761718v15.8125c1.023437.753906 1.902343 1.632812 2.488281 2.5625zm0 0" fill="#ffc987" data-original="#ffc987" className=""></path><path xmlns="http://www.w3.org/2000/svg" d="m138.21875 280.867188c0-5.230469 4.257812-9.488282 9.492188-9.488282h6.679687v-76.097656c0-3.027344 2.460937-5.488281 5.488281-5.488281h47.558594l16.054688-25.417969c1.722656-2.722656 5.894531-5.023438 9.113281-5.023438h65.386719c2.5 0 5.570312 1.390626 7.625 3.285157v-49.109375c0-10.726563-8.695313-19.417969-19.421876-19.417969h-170.578124c-10.726563 0-19.417969 8.691406-19.417969 19.417969v86.074218c0 34.246094 16.523437 64.703126 42.019531 83.820313zm0 0" fill="#ffe2b8" data-original="#ffe2b8" className=""></path><path xmlns="http://www.w3.org/2000/svg" d="m138.21875 280.867188c0-4.558594 3.234375-8.375 7.523438-9.28125-17.804688-18.777344-28.742188-44.128907-28.742188-71.984376v-86.074218c0-10.726563 8.695312-19.417969 19.421875-19.417969h-20.804687c-10.726563 0-19.421876 8.691406-19.421876 19.417969v86.074218c0 34.246094 16.527344 64.703126 42.023438 83.820313zm0 0" fill="#ffc987" data-original="#ffc987" className=""></path><path xmlns="http://www.w3.org/2000/svg" d="m197.230469 189.792969v-25.792969c0-4.144531-3.359375-7.5-7.5-7.5s-7.5 3.355469-7.5 7.5v25.792969zm0 0" fill="#ebaa48" data-original="#ebaa48"></path><path xmlns="http://www.w3.org/2000/svg" d="m160.03125 172.199219c0 8.0625-6.539062 14.601562-14.601562 14.601562-8.066407 0-14.601563-6.539062-14.601563-14.601562v-14.601563c0-8.066406 6.535156-14.597656 14.601563-14.597656 8.0625 0 14.601562 6.53125 14.601562 14.597656zm0 0" fill="#231f20" data-original="#231f20" className=""></path><path xmlns="http://www.w3.org/2000/svg" d="m270.984375 159.351562v-1.753906c0-8.066406-6.535156-14.597656-14.597656-14.597656s-14.601563 6.53125-14.601563 14.597656v1.753906zm0 0" fill="#231f20" data-original="#231f20" className=""></path><path xmlns="http://www.w3.org/2000/svg" d="m162.5625 127.5h-39c-4.140625 0-7.5-3.355469-7.5-7.5s3.359375-7.5 7.5-7.5h39c4.144531 0 7.5 3.355469 7.5 7.5s-3.355469 7.5-7.5 7.5zm0 0" fill="#ef8318" data-original="#ef8318" className=""></path><path xmlns="http://www.w3.org/2000/svg" d="m277.5625 127.5h-39c-4.140625 0-7.5-3.355469-7.5-7.5s3.359375-7.5 7.5-7.5h39c4.144531 0 7.5 3.355469 7.5 7.5s-3.355469 7.5-7.5 7.5zm0 0" fill="#ef8318" data-original="#ef8318" className=""></path><path xmlns="http://www.w3.org/2000/svg" d="m324.34375 189.792969-16.394531-25.953125c-1.90625-3.019532-6.386719-5.488282-9.957031-5.488282h-65.386719c-3.570313 0-8.050781 2.472657-9.957031 5.488282l-16.394532 25.953125zm0 0" fill="#445ea0" data-original="#445ea0" className=""></path><path xmlns="http://www.w3.org/2000/svg" d="m226.621094 189.792969 16.398437-25.953125c1.90625-3.019532 6.386719-5.488282 9.957031-5.488282h-20.371093c-3.570313 0-8.050781 2.472657-9.957031 5.488282l-16.394532 25.953125zm0 0" fill="#2e4c89" data-original="#2e4c89"></path><path xmlns="http://www.w3.org/2000/svg" d="m184.074219 271.378906c5.230469 0 9.488281 4.257813 9.488281 9.488282 0 3.667968-2.058594 6.9375-5.375 8.539062l-1.867188.902344 1.867188.898437c3.316406 1.601563 5.375 4.871094 5.375 8.539063 0 3.667968-2.058594 6.941406-5.375 8.539062l-1.867188.902344 1.867188.898438c3.316406 1.601562 5.375 4.875 5.375 8.542968 0 3.667969-2.058594 6.9375-5.375 8.535156l-1.867188.902344 1.867188.898438c2.578125 1.246094 4.378906 3.503906 5.0625 6.167968h154.914062c-.238281-.613281-.371093-1.277343-.371093-1.972656v-142.394531c0-.695313.132812-1.359375.371093-1.972656h-188.285156c-3.570312 0-6.488281 2.917969-6.488281 6.488281v76.097656zm0 0" fill="#293d7c" data-original="#293d7c" className=""></path><path xmlns="http://www.w3.org/2000/svg" d="m174 271.378906v-76.097656c0-3.570312 2.921875-6.488281 6.488281-6.488281h-20.609375c-3.570312 0-6.488281 2.917969-6.488281 6.488281v76.097656zm0 0" fill="#1a2b63" data-original="#1a2b63" className=""></path><path xmlns="http://www.w3.org/2000/svg" d="m313.359375 246.804688c-1.09375 0-2.15625.125-3.179687.351562 1.449218 4.542969 2.234374 9.375 2.234374 14.390625s-.785156 9.847656-2.234374 14.390625c1.023437.222656 2.085937.351562 3.179687.351562 8.144531 0 14.742187-6.601562 14.742187-14.742187 0-8.144531-6.601562-14.742187-14.742187-14.742187zm0 0" fill="#aec1ed" data-original="#aec1ed" className=""></path><path xmlns="http://www.w3.org/2000/svg" d="m380.710938 242.621094c-5.234376 0-9.492188-4.257813-9.492188-9.488282 0-3.667968 2.0625-6.9375 5.378906-8.539062l1.863282-.902344-1.863282-.898437c-3.316406-1.601563-5.378906-4.871094-5.378906-8.539063 0-3.667968 2.0625-6.9375 5.378906-8.539062l1.863282-.902344-1.863282-.898438c-3.316406-1.601562-5.378906-4.875-5.378906-8.542968 0-3.664063 2.0625-6.9375 5.378906-8.535156l1.863282-.902344-1.863282-.898438c-.457031-.222656-.882812-.476562-1.285156-.757812h-22.027344c-3.570312 0-6.492187 2.921875-6.492187 6.492187v142.394531c0 3.570313 2.921875 6.492188 6.492187 6.492188h43.828125c3.570313 0 6.492188-2.921875 6.492188-6.492188v-90.539062h-22.894531zm0 0" fill="#293d7c" data-original="#293d7c" className=""></path><path xmlns="http://www.w3.org/2000/svg" d="m367.191406 333.160156v-142.394531c0-3.570313 2.917969-6.488281 6.488282-6.488281h-20.398438c-3.566406 0-6.488281 2.917968-6.488281 6.488281v142.398437c0 3.566407 2.921875 6.488282 6.488281 6.488282h20.398438c-3.570313 0-6.488282-2.921875-6.488282-6.492188zm0 0" fill="#1a2b63" data-original="#1a2b63" className=""></path><path xmlns="http://www.w3.org/2000/svg" d="m376.597656 205.710938 1.863282-.898438-1.863282-.902344c-3.316406-1.597656-5.378906-4.871094-5.378906-8.539062 0-.414063.035156-.820313.085938-1.222656h-8.285157c-3.570312 0-6.492187 2.921874-6.492187 6.492187v3.796875c0 3.570312 2.921875 6.488281 6.492187 6.488281h8.820313c.835937-2.242187 2.492187-4.121093 4.757812-5.214843zm0 0" fill="#445ea0" data-original="#445ea0" className=""></path><path xmlns="http://www.w3.org/2000/svg" d="m264.921875 213.054688c-14.925781 0-28.265625 6.742187-37.160156 17.34375 3.285156 1.394531 8.441406 2.097656 16.660156 2.855468 1.601563.144532 2.8125 1.472656 2.8125 3.082032 0 1.609374-1.210937 2.9375-2.8125 3.082031-11.339844 1.046875-16.871094 1.980469-19.664063 4.777343-2.796874 2.792969-3.734374 8.324219-4.777343 19.664063-.144531 1.605469-1.472657 2.8125-3.082031 2.8125-.070313 0-.132813-.015625-.203126-.019531 2.550782 24.378906 23.167969 43.386718 48.226563 43.386718 26.78125 0 48.492187-21.710937 48.492187-48.492187s-21.710937-48.492187-48.492187-48.492187zm0 0" fill="#445ea0" data-original="#445ea0" className=""></path><path xmlns="http://www.w3.org/2000/svg" d="m264.921875 231.421875c-6.675781 0-12.851563 2.183594-17.847656 5.875-.363281 1.113281-1.332031 1.949219-2.550781 2.101563-5.976563 5.511718-9.730469 13.398437-9.730469 22.148437 0 16.609375 13.515625 30.125 30.128906 30.125 16.609375 0 30.125-13.515625 30.125-30.125 0-16.613281-13.515625-30.125-30.125-30.125zm0 0" fill="#293d7c" data-original="#293d7c" className=""></path><path xmlns="http://www.w3.org/2000/svg" d="m255.746094 261.546875c0-12.929687 8.191406-23.980469 19.652344-28.246094-3.265626-1.214843-6.796876-1.878906-10.476563-1.878906-6.675781 0-12.851563 2.183594-17.847656 5.875-.363281 1.113281-1.332031 1.949219-2.550781 2.101563-5.976563 5.511718-9.730469 13.398437-9.730469 22.148437 0 16.609375 13.515625 30.125 30.128906 30.125 3.683594 0 7.210937-.667969 10.476563-1.882813-11.464844-4.265624-19.652344-15.3125-19.652344-28.242187zm0 0" fill="#1a2b63" data-original="#1a2b63" className=""></path><path xmlns="http://www.w3.org/2000/svg" d="m199.148438 214.363281c0 2.75-2.25 5-5 5h-21.804688c-2.75 0-5-2.25-5-5v-8.171875c0-2.75 2.25-5 5-5h21.804688c2.75 0 5 2.25 5 5zm0 0" fill="#aec1ed" data-original="#aec1ed" className=""></path><path xmlns="http://www.w3.org/2000/svg" d="m178 214.363281v-8.171875c0-2.75 2.25-5 5-5h-10.65625c-2.75 0-5 2.25-5 5v8.171875c0 2.75 2.25 5 5 5h10.65625c-2.75 0-5-2.25-5-5zm0 0" fill="#85a0dd" data-original="#85a0dd"></path><path xmlns="http://www.w3.org/2000/svg" d="m286.394531 178.664062c0 2.75-2.25 5-5 5h-32.191406c-2.75 0-5-2.25-5-5v-5.574218c0-2.75 2.25-5 5-5h32.191406c2.75 0 5 2.25 5 5zm0 0" fill="#293d7c" data-original="#293d7c" className=""></path><path xmlns="http://www.w3.org/2000/svg" d="m265 178.664062v-5.574218c0-2.75 2.25-5 5-5h-20.796875c-2.75 0-5 2.25-5 5v5.574218c0 2.75 2.25 5 5 5h20.796875c-2.75 0-5-2.25-5-5zm0 0" fill="#1a2b63" data-original="#1a2b63" className=""></path><path xmlns="http://www.w3.org/2000/svg" d="m417.074219 166h-36.363281c-5.796876 0-10.492188 4.695312-10.492188 10.488281 0 4.160157 2.429688 7.746094 5.941406 9.441407-3.511718 1.695312-5.941406 5.28125-5.941406 9.441406s2.429688 7.742187 5.941406 9.4375c-3.511718 1.699218-5.941406 5.28125-5.941406 9.441406s2.429688 7.746094 5.941406 9.441406c-3.511718 1.695313-5.941406 5.277344-5.941406 9.441406 0 5.792969 4.695312 10.488282 10.492188 10.488282h36.363281c5.792969 0 10.488281-4.695313 10.488281-10.488282v-56.644531c0-5.792969-4.695312-10.488281-10.488281-10.488281zm0 0" fill="#ffc987" data-original="#ffc987" className=""></path><path xmlns="http://www.w3.org/2000/svg" d="m384.65625 233.132812c0-4.160156 2.429688-7.746093 5.941406-9.441406-3.511718-1.695312-5.941406-5.277344-5.941406-9.4375s2.429688-7.746094 5.941406-9.441406c-3.511718-1.695312-5.941406-5.28125-5.941406-9.441406s2.429688-7.742188 5.941406-9.4375c-3.511718-1.699219-5.941406-5.28125-5.941406-9.441406 0-5.792969 4.695312-10.488282 10.488281-10.488282h-14.433593c-5.796876 0-10.492188 4.695313-10.492188 10.488282 0 4.160156 2.429688 7.742187 5.941406 9.441406-3.511718 1.695312-5.941406 5.277344-5.941406 9.4375s2.429688 7.746094 5.941406 9.441406c-3.511718 1.695312-5.941406 5.28125-5.941406 9.441406s2.429688 7.742188 5.941406 9.4375c-3.511718 1.695313-5.941406 5.28125-5.941406 9.441406 0 5.792969 4.695312 10.488282 10.492188 10.488282h14.4375c-5.796876 0-10.492188-4.695313-10.492188-10.488282zm0 0" fill="#f9b569" data-original="#f9b569"></path><path xmlns="http://www.w3.org/2000/svg" d="m147.710938 348h36.363281c5.792969 0 10.488281-4.695312 10.488281-10.488281 0-4.160157-2.425781-7.746094-5.941406-9.441407 3.515625-1.695312 5.941406-5.28125 5.941406-9.441406s-2.425781-7.742187-5.941406-9.4375c3.515625-1.699218 5.941406-5.28125 5.941406-9.441406s-2.425781-7.746094-5.941406-9.441406c3.515625-1.695313 5.941406-5.277344 5.941406-9.441406 0-5.792969-4.695312-10.488282-10.488281-10.488282h-36.363281c-5.792969 0-10.492188 4.695313-10.492188 10.488282v56.644531c0 5.792969 4.699219 10.488281 10.492188 10.488281zm0 0" fill="#ffc987" data-original="#ffc987" className=""></path><path xmlns="http://www.w3.org/2000/svg" d="m158 337.511719v-56.644531c0-5.792969 4.695312-10.488282 10.488281-10.488282h-20.777343c-5.792969 0-10.492188 4.695313-10.492188 10.488282v56.644531c0 5.792969 4.699219 10.488281 10.492188 10.488281h20.777343c-5.792969 0-10.488281-4.695312-10.488281-10.488281zm0 0" fill="#f9b569" data-original="#f9b569"></path><path xmlns="http://www.w3.org/2000/svg" d="m216.898438 267.671875c-2.117188 0-3.882813-1.613281-4.078126-3.722656-1.019531-11.085938-1.910156-16.472657-4.488281-19.046875-2.578125-2.578125-7.960937-3.46875-19.050781-4.488282-2.105469-.195312-3.71875-1.960937-3.71875-4.078124 0-2.117188 1.613281-3.886719 3.71875-4.078126 11.089844-1.023437 16.476562-1.910156 19.050781-4.488281 2.578125-2.578125 3.46875-7.957031 4.488281-19.050781.195313-2.105469 1.960938-3.71875 4.078126-3.71875 2.117187 0 3.886718 1.613281 4.078124 3.71875 1.019532 11.09375 1.914063 16.472656 4.488282 19.050781 2.578125 2.578125 7.960937 3.46875 19.050781 4.488281 2.105469.191407 3.71875 1.960938 3.71875 4.078126 0 2.117187-1.613281 3.882812-3.71875 4.078124-11.089844 1.019532-16.472656 1.910157-19.050781 4.488282-2.574219 2.574218-3.46875 7.960937-4.488282 19.046875-.191406 2.109375-1.960937 3.722656-4.078124 3.722656zm0 0" fill="#ffd00d" data-original="#ffd00d" className=""></path><path xmlns="http://www.w3.org/2000/svg" d="m220.417969 256.117188c-1.019531-11.089844-1.910157-16.476563-4.484375-19.050782-2.578125-2.578125-7.960938-3.46875-19.050782-4.488281-.816406-.074219-1.558593-.394531-2.160156-.871094-1.644531.1875-3.445312.363281-5.441406.550781-2.105469.191407-3.71875 1.960938-3.71875 4.078126 0 2.117187 1.613281 3.882812 3.71875 4.078124 11.089844 1.019532 16.476562 1.910157 19.050781 4.488282 2.578125 2.574218 3.46875 7.960937 4.488281 19.046875.195313 2.109375 1.960938 3.722656 4.078126 3.722656 2.117187 0 3.886718-1.613281 4.078124-3.722656.183594-1.984375.363282-3.78125.546876-5.417969-.605469-.644531-1.015626-1.472656-1.105469-2.414062zm0 0" fill="#ffaf10" data-original="#ffaf10" className=""></path></g></svg>